<svg xmlns="http://www.w3.org/2000/svg" viewBox="0 0 518 528">
  <g fill="none" fill-rule="evenodd" transform="translate(1 1)">
    <path stroke="#09073B" stroke-linecap="round" stroke-linejoin="round" stroke-width="3" d="M173.23 227.86l-2.17-1.25"/>
    <path stroke="#09073B" stroke-dasharray="4.72" stroke-linecap="round" stroke-linejoin="round" stroke-width="3" d="M164.53 222.83l-81.67-47.15"/>
    <path stroke="#09073B" stroke-linecap="round" stroke-linejoin="round" stroke-width="3" d="M79.59 173.8l-2.17-1.25 2.17-1.25"/>
    <path stroke="#09073B" stroke-dasharray="4.72" stroke-linecap="round" stroke-linejoin="round" stroke-width="3" d="M86.12 167.52l81.67-47.15"/>
    <path stroke="#09073B" stroke-linecap="round" stroke-linejoin="round" stroke-width="3" d="M171.06 118.49l2.17-1.25"/>
    <ellipse cx="173.23" cy="117.24" fill="#09073B" fill-rule="nonzero" stroke="#09073B" stroke-linecap="round" stroke-linejoin="round" stroke-width="3" rx="6.12" ry="3.54"/>
    <path stroke="#09073B" stroke-linecap="round" stroke-linejoin="round" stroke-width="3" d="M403.88 330.8l2.17 1.25"/>
    <path stroke="#09073B" stroke-dasharray="4.94" stroke-linecap="round" stroke-linejoin="round" stroke-width="3" d="M412.9 336l96.72 55.85"/>
    <path stroke="#09073B" stroke-linecap="round" stroke-linejoin="round" stroke-width="3" d="M513.05 393.82l2.16 1.25-2.16 1.25"/>
    <path stroke="#09073B" stroke-dasharray="4.94" stroke-linecap="round" stroke-linejoin="round" stroke-width="3" d="M506.2 400.28l-96.73 55.84"/>
    <path stroke="#09073B" stroke-linecap="round" stroke-linejoin="round" stroke-width="3" d="M406.05 458.1l-2.17 1.25"/>
    <path fill="#E5E5E5" fill-rule="nonzero" stroke="#09073B" stroke-linecap="round" stroke-linejoin="round" stroke-width="3" d="M507.08 287.25h0c0-2.54-1.85-5.22-5.47-7.31L265.79 143.79c-6.63-3.82-16.65-4.24-22.39-.93l-239 138c-2.6 1.51-3.86 3.51-3.86 5.62h0v20h0c0 2.54 1.85 5.22 5.47 7.31l235.78 136.15c6.63 3.82 16.65 4.24 22.39.92l239-138c2.6-1.5 3.86-3.51 3.87-5.61h0l.03-20z"/>
    <path stroke="#09073B" stroke-linecap="round" stroke-linejoin="round" stroke-width="3" d="M503.2 292.86l-239 138c-5.74 3.32-15.76 2.9-22.39-.93L6 293.79c-6.64-3.79-7.36-9.61-1.63-12.93l239-138c5.74-3.31 15.76-2.89 22.39.93L501.6 279.93c6.62 3.83 7.34 9.62 1.6 12.93z"/>
    <path fill="#E5E5E5" fill-rule="nonzero" stroke="#09073B" stroke-linecap="round" stroke-linejoin="round" stroke-width="3" d="M489.67 108.15L304.62 1.31a6 6 0 00-5.68-.17h0l-6 3h0a6 6 0 00-3.26 4.53l-20.56 146.49a11 11 0 005.39 11.05l185.06 106.85a6 6 0 005.68.16h0l6-3h0a5.92 5.92 0 003.26-4.53l20.56-146.48a11 11 0 00-5.4-11.06z"/>
    <path fill="#FFF" fill-rule="nonzero" stroke="#09073B" stroke-linecap="round" stroke-linejoin="round" stroke-width="3" d="M459.57 273.06L274.51 166.21a11 11 0 01-5.39-11.05L289.68 8.67a6 6 0 018.94-4.36l185.05 106.84a11 11 0 015.4 11.06l-20.56 146.48a6 6 0 01-8.94 4.37h0z"/>
    <path fill="#09073B" fill-rule="nonzero" stroke="#09073B" stroke-linecap="round" stroke-linejoin="round" stroke-width="3" d="M297.91 15.48l-18.05 128.6 181.87 105 18.04-128.6z"/>
    <path fill="#175CFF" fill-rule="nonzero" d="M365.54 130.27v10.54l14.28 8.42 14.29-8.42V127l-12.19 7.16a4 4 0 01-4.21 0l-16.58-9.76a2.73 2.73 0 010-4.67l16.58-9.78a4.08 4.08 0 014.21 0l12.19 7.19-5.61 3.3-8.68-5.1-4.07 2.41-7.34 4.34 3.87 2.28 7.54 4.48 15.41-9.06a3.22 3.22 0 012.93 0 3 3 0 011.66 2.68v19.27a4.09 4.09 0 01-2.05 3.59l-15.85 9.34a4.08 4.08 0 01-4.21 0l-15.85-9.34a4.08 4.08 0 01-2-3.59v-14.81l5.68 3.34z"/>
    <path fill="#E5E5E5" fill-rule="nonzero" stroke="#09073B" stroke-linecap="round" stroke-linejoin="round" stroke-width="3" d="M463.22 268.18h0a4.42 4.42 0 00-2.57-3.74l-185.33-107c-3.83-2.21-10.51-1.93-14.93.62l-113.9 65.76c-2.42 1.39-3.65 3.18-3.65 4.88h0v10h0a4.42 4.42 0 002.58 3.74l185.33 107c3.82 2.21 10.51 1.93 14.93-.62l113.9-65.76c2.42-1.4 3.65-3.19 3.64-4.88h0v-10z"/>
    <path fill="#FFF" fill-rule="nonzero" stroke="#09073B" stroke-linecap="round" stroke-linejoin="round" stroke-width="3" d="M330.74 339.44l-185.33-107c-3.83-2.21-3.35-6.07 1.07-8.62l113.9-65.76c4.42-2.55 11.1-2.83 14.93-.62l185.33 107c3.83 2.21 3.35 6.07-1.07 8.62l-113.9 65.76c-4.42 2.55-11.11 2.83-14.93.62z"/>
    <path fill="#FFF" fill-rule="nonzero" stroke="#09073B" stroke-linecap="round" stroke-linejoin="round" stroke-width="2" d="M317 271.51l-53.69-31a8.32 8.32 0 00-7.46.31l-26.65 15.39c-2.2 1.27-2.44 3.2-.53 4.3l53.69 31a8.31 8.31 0 007.47-.3l26.64-15.39c2.22-1.27 2.46-3.2.53-4.31z"/>
    <ellipse cx="259.01" cy="170.85" fill="#B2B2B2" fill-rule="nonzero" rx="2.45" ry="1.41"/>
    <ellipse cx="268.54" cy="176.35" fill="#B2B2B2" fill-rule="nonzero" rx="2.45" ry="1.41"/>
    <ellipse cx="263.78" cy="173.6" fill="#B2B2B2" fill-rule="nonzero" rx="2.45" ry="1.41"/>
    <ellipse cx="254.21" cy="173.62" fill="#B2B2B2" fill-rule="nonzero" rx="2.45" ry="1.41"/>
    <ellipse cx="263.74" cy="179.12" fill="#B2B2B2" fill-rule="nonzero" rx="2.45" ry="1.41"/>
    <ellipse cx="258.97" cy="176.37" fill="#B2B2B2" fill-rule="nonzero" rx="2.45" ry="1.41"/>
    <ellipse cx="249.41" cy="176.39" fill="#B2B2B2" fill-rule="nonzero" rx="2.45" ry="1.41"/>
    <ellipse cx="258.94" cy="181.89" fill="#B2B2B2" fill-rule="nonzero" rx="2.45" ry="1.41"/>
    <ellipse cx="254.17" cy="179.14" fill="#B2B2B2" fill-rule="nonzero" rx="2.45" ry="1.41"/>
    <ellipse cx="244.61" cy="179.17" fill="#B2B2B2" fill-rule="nonzero" rx="2.45" ry="1.41"/>
    <ellipse cx="254.13" cy="184.67" fill="#B2B2B2" fill-rule="nonzero" rx="2.45" ry="1.41"/>
    <ellipse cx="249.37" cy="181.92" fill="#B2B2B2" fill-rule="nonzero" rx="2.45" ry="1.41"/>
    <ellipse cx="239.8" cy="181.94" fill="#B2B2B2" fill-rule="nonzero" rx="2.45" ry="1.41"/>
    <ellipse cx="249.33" cy="187.44" fill="#B2B2B2" fill-rule="nonzero" rx="2.45" ry="1.41"/>
    <ellipse cx="244.57" cy="184.69" fill="#B2B2B2" fill-rule="nonzero" rx="2.45" ry="1.41"/>
    <ellipse cx="235" cy="184.71" fill="#B2B2B2" fill-rule="nonzero" rx="2.45" ry="1.41"/>
    <ellipse cx="244.53" cy="190.21" fill="#B2B2B2" fill-rule="nonzero" rx="2.45" ry="1.41"/>
    <ellipse cx="239.76" cy="187.46" fill="#B2B2B2" fill-rule="nonzero" rx="2.45" ry="1.41"/>
    <ellipse cx="230.2" cy="187.48" fill="#B2B2B2" fill-rule="nonzero" rx="2.45" ry="1.41"/>
    <ellipse cx="239.73" cy="192.98" fill="#B2B2B2" fill-rule="nonzero" rx="2.45" ry="1.41"/>
    <ellipse cx="234.96" cy="190.23" fill="#B2B2B2" fill-rule="nonzero" rx="2.45" ry="1.41"/>
    <ellipse cx="225.4" cy="190.26" fill="#B2B2B2" fill-rule="nonzero" rx="2.45" ry="1.41"/>
    <ellipse cx="234.92" cy="195.76" fill="#B2B2B2" fill-rule="nonzero" rx="2.45" ry="1.41"/>
    <ellipse cx="230.16" cy="193.01" fill="#B2B2B2" fill-rule="nonzero" rx="2.45" ry="1.41"/>
    <ellipse cx="220.59" cy="193.03" fill="#B2B2B2" fill-rule="nonzero" rx="2.45" ry="1.41"/>
    <ellipse cx="230.12" cy="198.53" fill="#B2B2B2" fill-rule="nonzero" rx="2.45" ry="1.41"/>
    <ellipse cx="225.36" cy="195.78" fill="#B2B2B2" fill-rule="nonzero" rx="2.45" ry="1.41"/>
    <ellipse cx="216.26" cy="195.53" fill="#B2B2B2" fill-rule="nonzero" rx="2.45" ry="1.41"/>
    <ellipse cx="225.79" cy="201.03" fill="#B2B2B2" fill-rule="nonzero" rx="2.45" ry="1.41"/>
    <ellipse cx="221.03" cy="198.28" fill="#B2B2B2" fill-rule="nonzero" rx="2.45" ry="1.41"/>
    <ellipse cx="427.89" cy="268.35" fill="#B2B2B2" fill-rule="nonzero" rx="2.45" ry="1.41"/>
    <ellipse cx="437.41" cy="273.85" fill="#B2B2B2" fill-rule="nonzero" rx="2.45" ry="1.41"/>
    <ellipse cx="432.65" cy="271.1" fill="#B2B2B2" fill-rule="nonzero" rx="2.45" ry="1.41"/>
    <ellipse cx="423.09" cy="271.12" fill="#B2B2B2" fill-rule="nonzero" rx="2.45" ry="1.41"/>
    <ellipse cx="432.61" cy="276.62" fill="#B2B2B2" fill-rule="nonzero" rx="2.45" ry="1.41"/>
    <ellipse cx="427.85" cy="273.87" fill="#B2B2B2" fill-rule="nonzero" rx="2.45" ry="1.41"/>
    <ellipse cx="418.28" cy="273.89" fill="#B2B2B2" fill-rule="nonzero" rx="2.45" ry="1.41"/>
    <ellipse cx="427.81" cy="279.39" fill="#B2B2B2" fill-rule="nonzero" rx="2.45" ry="1.41"/>
    <ellipse cx="423.05" cy="276.64" fill="#B2B2B2" fill-rule="nonzero" rx="2.45" ry="1.41"/>
    <ellipse cx="413.48" cy="276.67" fill="#B2B2B2" fill-rule="nonzero" rx="2.45" ry="1.41"/>
    <ellipse cx="423.01" cy="282.17" fill="#B2B2B2" fill-rule="nonzero" rx="2.45" ry="1.41"/>
    <ellipse cx="418.24" cy="279.42" fill="#B2B2B2" fill-rule="nonzero" rx="2.45" ry="1.41"/>
    <ellipse cx="408.68" cy="279.44" fill="#B2B2B2" fill-rule="nonzero" rx="2.45" ry="1.41"/>
    <ellipse cx="418.21" cy="284.94" fill="#B2B2B2" fill-rule="nonzero" rx="2.45" ry="1.41"/>
    <ellipse cx="413.44" cy="282.19" fill="#B2B2B2" fill-rule="nonzero" rx="2.45" ry="1.41"/>
    <ellipse cx="403.88" cy="282.21" fill="#B2B2B2" fill-rule="nonzero" rx="2.45" ry="1.41"/>
    <ellipse cx="413.4" cy="287.71" fill="#B2B2B2" fill-rule="nonzero" rx="2.45" ry="1.41"/>
    <ellipse cx="408.64" cy="284.96" fill="#B2B2B2" fill-rule="nonzero" rx="2.45" ry="1.41"/>
    <ellipse cx="399.07" cy="284.98" fill="#B2B2B2" fill-rule="nonzero" rx="2.45" ry="1.41"/>
    <ellipse cx="408.6" cy="290.48" fill="#B2B2B2" fill-rule="nonzero" rx="2.45" ry="1.41"/>
    <ellipse cx="403.84" cy="287.73" fill="#B2B2B2" fill-rule="nonzero" rx="2.45" ry="1.41"/>
    <ellipse cx="394.27" cy="287.76" fill="#B2B2B2" fill-rule="nonzero" rx="2.45" ry="1.41"/>
    <ellipse cx="403.8" cy="293.26" fill="#B2B2B2" fill-rule="nonzero" rx="2.45" ry="1.41"/>
    <ellipse cx="399.03" cy="290.51" fill="#B2B2B2" fill-rule="nonzero" rx="2.45" ry="1.41"/>
    <ellipse cx="389.47" cy="290.53" fill="#B2B2B2" fill-rule="nonzero" rx="2.45" ry="1.41"/>
    <ellipse cx="399" cy="296.03" fill="#B2B2B2" fill-rule="nonzero" rx="2.45" ry="1.41"/>
    <ellipse cx="394.23" cy="293.28" fill="#B2B2B2" fill-rule="nonzero" rx="2.45" ry="1.41"/>
    <ellipse cx="385.14" cy="293.03" fill="#B2B2B2" fill-rule="nonzero" rx="2.45" ry="1.41"/>
    <ellipse cx="394.67" cy="298.53" fill="#B2B2B2" fill-rule="nonzero" rx="2.45" ry="1.41"/>
    <ellipse cx="389.9" cy="295.78" fill="#B2B2B2" fill-rule="nonzero" rx="2.45" ry="1.41"/>
    <path fill="#FFF" fill-rule="nonzero" stroke="#09073B" stroke-linecap="round" stroke-linejoin="round" stroke-width="2" d="M281.37 190.94l-8.66-5 8.66-5 8.66 5zM281.37 205.94l-21.65-12.5 8.66-5 21.65 12.5zM255.39 205.94l-8.66-5 8.66-5 8.66 5zM242.4 213.44l-8.66-5 8.66-5 8.66 5zM294.36 198.44l-8.66-5 8.66-5 8.66 5zM268.38 213.44l-8.66-5 8.66-5 8.66 5zM255.39 220.94l-8.66-5 8.66-5 8.66 5zM307.35 205.94l-8.66-5 8.66-5 8.66 5zM294.36 213.44l-8.66-5 8.66-5 8.66 5zM281.37 220.94l-8.66-5 8.66-5 8.66 5zM268.38 228.44l-8.66-5 8.66-5 8.66 5zM320.34 213.44l-8.66-5 8.66-5 8.66 5zM307.35 220.94l-8.66-5 8.66-5 8.66 5zM294.36 228.44l-8.66-5 8.66-5 8.66 5zM333.33 265.94l-60.62-35 8.66-5 60.63 35zM333.33 220.94l-8.66-5 8.66-5 8.67 5zM320.34 228.44l-8.66-5 8.66-5 8.66 5zM307.35 235.94l-8.66-5 8.66-5 8.66 5zM346.32 228.44l-8.65-5 8.65-5 8.67 5zM333.33 235.94l-8.66-5 8.66-5 8.67 5zM320.34 243.44l-8.66-5 8.66-5 8.66 5zM359.31 235.94l-8.66-5 8.66-5 8.67 5zM346.32 243.44l-8.65-5 8.65-5 8.67 5zM333.33 250.94l-8.66-5 8.66-5 8.67 5zM372.31 243.44l-8.67-5 8.67-5 8.66 5zM359.31 250.94l-8.66-5 8.66-5 8.67 5zM346.32 258.44l-8.65-5 8.65-5 8.67 5zM385.3 250.94l-8.66-5 8.66-5 8.66 5zM372.31 258.44l-8.67-5 8.67-5 8.66 5zM359.31 265.94l-8.66-5 8.66-5 8.67 5zM346.32 273.44l-8.65-5 8.65-5 8.67 5zM411.28 265.94l-21.65-12.5 8.66-5 21.65 12.5zM385.3 265.94l-8.66-5 8.66-5 8.66 5zM359.31 280.94l-8.66-5 8.66-5 8.67 5zM398.29 273.44l-8.66-5 8.66-5 8.66 5zM385.3 280.94l-21.65-12.5 8.66-5 21.65 12.5zM372.31 288.44l-8.66-5 8.66-5 8.66 5z"/>
    <path fill="#175CFF" fill-rule="nonzero" stroke="#09073B" stroke-linecap="round" stroke-linejoin="round" stroke-width="3" d="M317.5 375.52h0a3.56 3.56 0 00-.51-1.81l-13.33-22.78c-1.73-3-7.29-4.55-12.41-3.55l-85.87 16.75c-4.08.79-6.65 3-6.65 5.36h0v5h0c0 .639.176 1.265.51 1.81l13.32 22.77c1.73 3 7.29 4.55 12.42 3.55l85.86-16.74c4.09-.8 6.66-3 6.66-5.36h0v-5z"/>
    <path fill="#FFF" fill-rule="nonzero" stroke="#09073B" stroke-linecap="round" stroke-linejoin="round" stroke-width="3" d="M303.65 350.93L317 373.71c1.73 3-1 6.17-6.15 7.17L225 397.62c-5.13 1-10.69-.59-12.42-3.55l-13.35-22.77c-1.74-3 1-6.17 6.14-7.17l85.87-16.75c5.12-1 10.68.62 12.41 3.55z"/>
    <path fill="#09073B" fill-rule="nonzero" d="M297.85 352.06l13.33 22.78c.65 1.11-.38 2.31-2.31 2.69L223 394.27c-1.92.38-4-.22-4.66-1.33L205 370.17c-.65-1.11.38-2.32 2.3-2.69l85.87-16.75c1.95-.37 4.03.27 4.68 1.33z"/>
    <path fill="#175CFF" fill-rule="nonzero" stroke="#09073B" stroke-linecap="round" stroke-linejoin="round" stroke-width="3" d="M105.57 211.53l-25.98-15-25.98 15v70l25.98 15 25.98-15v-70z"/>
    <path stroke="#09073B" stroke-linecap="round" stroke-linejoin="round" stroke-width="3" d="M79.59 226.53l-25.98-15 25.98-15 25.98 15z"/>
    <path fill="#FFF" fill-rule="nonzero" stroke="#09073B" stroke-linecap="round" stroke-linejoin="round" stroke-width="3" d="M70.93 221.53l-8.66-5 25.98-15 8.66 5z"/>
    <path stroke="#09073B" stroke-linecap="round" stroke-linejoin="round" stroke-width="3" d="M105.57 281.53l-25.98 15v-70l25.98-15z"/>
    <path stroke="#09073B" stroke-linecap="round" stroke-linejoin="round" stroke-width="3" d="M53.61 281.53l25.98 15v-70l-25.98-15z"/>
    <path fill="#FFF" fill-rule="nonzero" stroke="#09073B" stroke-linecap="round" stroke-linejoin="round" stroke-width="3" d="M62.27 231.53l8.66 5v-15l-8.66-5z"/>
    <path fill="#175CFF" fill-rule="nonzero" stroke="#09073B" stroke-linecap="round" stroke-linejoin="round" stroke-width="3" d="M122.89 281.53l25.98-15-25.98-15-25.98 15z"/>
    <path fill="#FFF" fill-rule="nonzero" stroke="#09073B" stroke-linecap="round" stroke-linejoin="round" stroke-width="3" d="M131.55 276.53l8.66-5-25.98-15-8.66 5z"/>
    <path fill="#175CFF" fill-rule="nonzero" stroke="#09073B" stroke-linecap="round" stroke-linejoin="round" stroke-width="3" d="M96.91 296.53l25.98 15v-30l-25.98-15zM148.87 296.53l-25.98 15v-30l25.98-15z"/>
    <path fill="#FFF" fill-rule="nonzero" stroke="#09073B" stroke-linecap="round" stroke-linejoin="round" stroke-width="3" d="M140.21 286.53l-8.66 5v-15l8.66-5z"/>
    <path stroke="#09073B" stroke-linecap="round" stroke-linejoin="round" stroke-width="3" d="M122.89 251.53l-25.98 15h0v30l25.98 15 25.98-15v-30z"/>
    <path fill="#175CFF" fill-rule="nonzero" stroke="#09073B" stroke-linecap="round" stroke-linejoin="round" stroke-width="3" d="M96.88 279.65l17.32 10-10.26 28.2-17.32-10z"/>
    <path stroke="#09073B" stroke-linecap="round" stroke-linejoin="round" stroke-width="3" d="M108.34 294.23l-10.39-6-1.07-8.58 17.32 10z"/>
    <path fill="#175CFF" fill-rule="nonzero" stroke="#09073B" stroke-linecap="round" stroke-linejoin="round" stroke-width="3" d="M484.87 452.28h0a4.42 4.42 0 00-2.57-3.74l-64.09-37c-3.82-2.21-10.51-1.93-14.92.62l-96.59 55.76c-2.41 1.4-3.64 3.18-3.64 4.88h0v10h0a4.42 4.42 0 002.57 3.74l64.09 37c3.82 2.21 10.51 1.93 14.93-.62l96.58-55.76c2.42-1.4 3.64-3.18 3.64-4.88h0v-10z"/>
    <path fill="#175CFF" fill-rule="nonzero" stroke="#09073B" stroke-linecap="round" stroke-linejoin="round" stroke-width="3" d="M369.71 513.54l-64.09-37c-3.82-2.21-3.34-6.07 1.07-8.62l96.59-55.76c4.41-2.55 11.1-2.83 14.92-.62l64.09 37c3.83 2.21 3.35 6.07-1.07 8.62l-96.58 55.76c-4.42 2.55-11.11 2.83-14.93.62z"/>
    <path fill="#FFF" fill-rule="nonzero" stroke="#09073B" stroke-linecap="round" stroke-linejoin="round" stroke-width="3" d="M385.3 502.54l-60.63-35 86.61-50 60.62 35z"/>
    <path stroke="#175CFF" stroke-linecap="round" stroke-linejoin="round" stroke-width="4" d="M435.71 461.02l-13.81-.04-.03-3.69"/>
    <path stroke="#09073B" stroke-linecap="round" stroke-linejoin="round" stroke-width="3" d="M393.15 440.42l21.51 12.41"/>
    <path stroke="#175CFF" stroke-linecap="round" stroke-linejoin="round" stroke-width="4" d="M421.28 469.35l-13.81-.04-.03-3.69"/>
    <path stroke="#09073B" stroke-linecap="round" stroke-linejoin="round" stroke-width="3" d="M378.72 448.75l21.51 12.41"/>
    <path stroke="#175CFF" stroke-linecap="round" stroke-linejoin="round" stroke-width="4" d="M406.86 477.68l-13.81-.04-.04-3.7"/>
    <path stroke="#09073B" stroke-linecap="round" stroke-linejoin="round" stroke-width="3" d="M364.3 457.07l21.5 12.42"/>
    <path fill="#FFF" fill-rule="nonzero" stroke="#09073B" stroke-linecap="round" stroke-linejoin="round" stroke-width="3" d="M465 438.54l-6.06-3.5c4.78-2.76 4.78-7.24 0-10s-12.54-2.76-17.32 0l-6.06-3.5a15.32 15.32 0 00-13.86 0l-10.39 6 43.3 25 10.39-6c3.8-2.21 3.8-5.79 0-8z"/>
    <path stroke="#09073B" stroke-linecap="round" stroke-linejoin="round" stroke-width="3" d="M212 70.84l25.14 14.52a4 4 0 010 7l-41.24 23.79c-5.56 3.21-8.34-2.94-4.41-9.74l4.94-8.57"/>
    <path fill="#E5E5E5" fill-rule="nonzero" stroke="#09073B" stroke-linecap="round" stroke-linejoin="round" stroke-width="3" d="M212.02 43.84l-46.76 36-7.8-31.5 62.36-36z"/>
    <path stroke="#09073B" stroke-linecap="round" stroke-linejoin="round" stroke-width="3" d="M212 70.84l-47.3 27.31c-5.55 3.21-8.34-2.94-4.41-9.74l4.95-8.57"/>
    <ellipse cx="200.332" cy="84.343" fill="#FFF" fill-rule="nonzero" stroke="#09073B" stroke-linecap="round" stroke-linejoin="round" stroke-width="3" rx="8.27" ry="4.77" transform="rotate(-60 200.332 84.343)"/>
    <ellipse cx="172.109" cy="100.637" fill="#FFF" fill-rule="nonzero" stroke="#09073B" stroke-linecap="round" stroke-linejoin="round" stroke-width="3" rx="8.27" ry="4.77" transform="rotate(-60 172.11 100.637)"/>
    <path stroke="#09073B" stroke-linecap="round" stroke-linejoin="round" stroke-width="3" d="M157.46 48.34L156 42.49c-.52-2.11-2.39-2.71-4.53-1.47l-7.31 4.21"/>
    <ellipse cx="172.109" cy="100.637" fill="#09073B" fill-rule="nonzero" rx="2.2" ry="1.27" transform="rotate(-60 172.11 100.637)"/>
    <ellipse cx="200.332" cy="84.343" fill="#09073B" fill-rule="nonzero" rx="2.2" ry="1.27" transform="rotate(-60 200.332 84.343)"/>
    <path fill="#FFF" fill-rule="nonzero" stroke="#09073B" stroke-linecap="round" stroke-linejoin="round" stroke-width="3" d="M219.82 12.34l31.17 18-7.79 31.5-31.18-18z"/>
    <path fill="#FFF" fill-rule="nonzero" stroke="#09073B" stroke-linecap="round" stroke-linejoin="round" stroke-width="3" d="M165.26 79.84l31.17 18 46.77-36-31.18-18z"/>
    <path fill="#FFF" fill-rule="nonzero" stroke="#09073B" stroke-linecap="round" stroke-linejoin="round" stroke-width="3" d="M157.46 48.34l7.8 31.5 31.17 18-7.79-31.5z"/>
    <path stroke="#09073B" stroke-linecap="round" stroke-linejoin="round" stroke-width="3" d="M219.82 12.34l31.17 18-7.79 31.5-46.77 36-31.17-18-7.8-31.5z"/>
    <path fill="#E5E5E5" fill-rule="nonzero" stroke="#09073B" stroke-linecap="round" stroke-linejoin="round" stroke-width="3" d="M243.2 61.84l-46.77 36-7.79-31.5 62.35-36z"/>
    <ellipse cx="231.51" cy="102.34" fill="#FFF" fill-rule="nonzero" stroke="#09073B" stroke-linecap="round" stroke-linejoin="round" stroke-width="3" rx="8.27" ry="4.77" transform="rotate(-60 231.51 102.34)"/>
    <ellipse cx="203.288" cy="118.635" fill="#FFF" fill-rule="nonzero" stroke="#09073B" stroke-linecap="round" stroke-linejoin="round" stroke-width="3" rx="8.27" ry="4.77" transform="rotate(-60 203.288 118.635)"/>
    <ellipse cx="203.288" cy="118.635" fill="#09073B" fill-rule="nonzero" rx="2.2" ry="1.27" transform="rotate(-60 203.288 118.635)"/>
    <ellipse cx="231.51" cy="102.34" fill="#09073B" fill-rule="nonzero" rx="2.2" ry="1.27" transform="rotate(-60 231.51 102.34)"/>
    <path stroke="#175CFF" stroke-linecap="round" stroke-linejoin="round" stroke-width="8" d="M144.17 45.23l31.18 18"/>
    <path stroke="#09073B" stroke-linecap="round" stroke-linejoin="round" stroke-width="3" d="M196.43 97.84l-9.24-37.35c-.52-2.11-2.39-2.71-4.54-1.47l-7.3 4.21"/>
  </g>
</svg>