<svg xmlns="http://www.w3.org/2000/svg" viewBox="0 0 517 437">
  <g fill="none" fill-rule="evenodd" transform="translate(1 2)">
    <path fill="#E5E5E5" fill-rule="nonzero" stroke="#09073B" stroke-linecap="round" stroke-linejoin="round" stroke-width="3" d="M507.08 267.06h0c0-2.54-1.85-5.22-5.47-7.31L265.79 123.61c-6.63-3.83-16.65-4.24-22.39-.93l-239 138c-2.6 1.5-3.86 3.51-3.86 5.61h0v20h0c0 2.55 1.85 5.22 5.47 7.32l235.78 136.14c6.63 3.83 16.65 4.24 22.39.93l239-138c2.6-1.5 3.86-3.51 3.87-5.62h0l.03-20z"/>
    <path stroke="#09073B" stroke-linecap="round" stroke-linejoin="round" stroke-width="3" d="M171.81 271.34l-13.58 7.84M134.74 332.19l-13.58 7.84M83.04 275.26l-13.57 7.84M178.31 217.26l-13.58 7.84M248.26 195.25l-13.58 7.84"/>
    <path fill="#B2B2B2" fill-rule="nonzero" stroke="#09073B" stroke-linecap="round" stroke-linejoin="round" stroke-width="3" d="M401.01 201.68l-259.8 150 112.58 65 259.81-150z"/>
    <path stroke="#09073B" stroke-linecap="round" stroke-linejoin="round" stroke-width="3" d="M503.2 272.68l-239 138c-5.74 3.31-15.76 2.9-22.39-.93L6 273.61c-6.64-3.83-7.36-9.61-1.63-12.93l239-138c5.74-3.31 15.76-2.9 22.39.93L501.6 259.75c6.62 3.83 7.34 9.61 1.6 12.93z"/>
    <path fill="#FFF" fill-rule="nonzero" stroke="#09073B" stroke-linecap="round" stroke-linejoin="round" stroke-width="3" d="M1.73 78.51c-.12 6 7.37 6.14 13.26 3.42 7.71-3.56 9-10.36 17.27-15.77 11.26-7.38 14.74 1.41 26.79-6.58 6.79-4.49 6.64-7.89 13-11.76 11.7-7.11 14.77 2.79 24-3.27 9.87-6.52 11.82-21.53 21.68-27 6.42-3.55 9.67.55 15-4.58 2.37-2.27 4.87-6.09 4.91-9 0-3.06-2.73-4.11-5.42-3.23-3.73 1.22-5 5.44-9.14 7.9-6.64 4-8.25-4-15.67-.31-4.52 2.26-5 5.75-10.22 8.69-7 3.89-8.5-.91-13.92 2.62-6.15 4-6.91 12-12.49 15.59-6.44 4.12-7.86-5-15.46-1.51C47.09 37.52 42.26 51.11 35 53c-3.63.94-4.55-1.88-8.11.43-3.3 2.14-3.68 5.31-7.35 8.1-4.33 3.3-6 .57-10 3.49-4 2.92-7.74 9.32-7.81 13.49zM29.87 133.27c-.19 4.17 3.63 5.22 6.78 4.08 4-1.45 5.07-5.78 9.54-8.87 7.75-5.37 10.76 3.55 17.56-1.81 4.78-3.77 5.32-9.36 10.57-12.57 3.75-2.3 4.92-.31 8.1-3 3.18-2.69 6.36-8.31 6.18-12.39-.21-4.92-5.3-5.34-9.09-3.08-4 2.4-4.56 6.61-8.41 9.38-6.5 4.68-9.34-4.69-15.26-.55-5.23 3.65-6.28 13.15-11.78 16.26-3.18 1.8-4-.7-7.41 1.65-3 2.06-6.65 6.99-6.78 10.9zM155.2 53.29c-.12 2.72 2.37 3.4 4.42 2.66 2.61-1 3.31-3.77 6.22-5.78 5-3.5 7 2.31 11.44-1.18 3.11-2.46 3.47-6.1 6.88-8.19 2.45-1.5 3.21-.21 5.28-2 2.07-1.79 4.15-5.42 4-8.07-.14-3.21-3.45-3.48-5.92-2-2.62 1.56-3 4.31-5.48 6.11-4.24 3-6.09-3-9.94-.36-3.41 2.38-4.09 8.57-7.68 10.6-2.07 1.17-2.63-.46-4.83 1.08-1.92 1.37-4.27 4.58-4.39 7.13zM170.62 150.56h0l-4.33-2.5h0a1.63 1.63 0 00-1.7.12l-3.46 2a6.21 6.21 0 00-2.6 5v46.54l4.33 2.5 8.66-5v-46.58a2.3 2.3 0 00-.9-2.08h0zM187.94 140.56h0l-4.33-2.5h0a1.63 1.63 0 00-1.7.12l-3.46 2a6.21 6.21 0 00-2.6 5v46.54l4.33 2.5 8.66-5v-46.58a2.27 2.27 0 00-.9-2.08h0zM205.26 130.56h0l-4.33-2.5h0a1.63 1.63 0 00-1.7.12l-3.46 2a6.21 6.21 0 00-2.6 5v46.54l4.33 2.5 8.66-5v-46.58a2.27 2.27 0 00-.9-2.08zM222.58 120.56h0l-4.33-2.5h0a1.63 1.63 0 00-1.7.12l-3.46 2a6.21 6.21 0 00-2.6 5v46.54l4.33 2.5 8.66-5v-46.58a2.27 2.27 0 00-.9-2.08zM239.9 110.56h0l-4.33-2.5h0a1.63 1.63 0 00-1.7.12l-3.46 2a6.21 6.21 0 00-2.6 5v46.54l4.33 2.5 8.66-5v-46.58a2.27 2.27 0 00-.9-2.08h0zM257.22 100.56h0L252.89 98h0a1.63 1.63 0 00-1.7.12l-3.46 2a6.21 6.21 0 00-2.6 5v46.54l4.33 2.5 8.66-5v-46.52a2.27 2.27 0 00-.9-2.08h0zM274.54 90.56h0L270.21 88h0a1.63 1.63 0 00-1.7.12l-3.46 2a6.21 6.21 0 00-2.6 5v46.54l4.33 2.5 8.66-5V92.64a2.27 2.27 0 00-.9-2.08h0z"/>
    <path fill="#FFF" fill-rule="nonzero" stroke="#09073B" stroke-linecap="round" stroke-linejoin="round" stroke-width="3" d="M168.92 150.68l-3.46 2a6.21 6.21 0 00-2.6 5v46.54l8.66-5v-46.58c0-1.91-1.17-2.79-2.6-1.96zM186.24 140.68l-3.46 2a6.21 6.21 0 00-2.6 5v46.54l8.66-5v-46.58c0-1.91-1.17-2.79-2.6-1.96zM203.56 130.68l-3.46 2a6.21 6.21 0 00-2.6 5v46.54l8.66-5v-46.58c0-1.91-1.16-2.79-2.6-1.96zM220.88 120.68l-3.46 2a6.21 6.21 0 00-2.6 5v46.54l8.66-5v-46.58c0-1.91-1.16-2.79-2.6-1.96zM238.2 110.68l-3.46 2a6.21 6.21 0 00-2.6 5v46.54l8.66-5v-46.58c0-1.91-1.16-2.79-2.6-1.96zM255.52 100.68l-3.46 2a6.21 6.21 0 00-2.6 5v46.54l8.66-5v-46.58c0-1.91-1.12-2.79-2.6-1.96zM272.84 90.68l-3.46 2a6.21 6.21 0 00-2.6 5v46.54l8.66-5V92.64c0-1.91-1.16-2.79-2.6-1.96zM153.3 160.56h0L149 158h0a1.63 1.63 0 00-1.7.12l-3.47 2a6.23 6.23 0 00-2.59 5v46.54l4.33 2.5 8.66-5v-46.52a2.3 2.3 0 00-.93-2.08h0z"/>
    <path fill="#FFF" fill-rule="nonzero" stroke="#09073B" stroke-linecap="round" stroke-linejoin="round" stroke-width="3" d="M151.6 160.68l-3.47 2a6.23 6.23 0 00-2.59 5v46.54l8.66-5v-46.58c0-1.91-1.2-2.79-2.6-1.96zM40.71 225.56h0L36.39 223h0a1.61 1.61 0 00-1.69.12l-3.47 2a6.24 6.24 0 00-2.6 5v46.54l4.33 2.5 8.66-5v-46.52a2.27 2.27 0 00-.91-2.08h0zM58 215.56h0L53.71 213h0a1.61 1.61 0 00-1.69.12l-3.47 2a6.24 6.24 0 00-2.6 5v46.54l4.33 2.5 8.66-5v-46.52a2.27 2.27 0 00-.94-2.08h0zM75.35 205.56h0L71 203h0a1.61 1.61 0 00-1.69.12l-3.47 2a6.24 6.24 0 00-2.6 5v46.54l4.33 2.5 8.66-5v-46.52a2.27 2.27 0 00-.88-2.08z"/>
    <path fill="#FFF" fill-rule="nonzero" stroke="#09073B" stroke-linecap="round" stroke-linejoin="round" stroke-width="3" d="M39 225.68l-3.47 2a6.24 6.24 0 00-2.6 5v46.54l8.66-5v-46.58c.02-1.91-1.14-2.79-2.59-1.96zM56.34 215.68l-3.47 2a6.24 6.24 0 00-2.6 5v46.54l8.66-5v-46.58c0-1.91-1.16-2.79-2.59-1.96zM73.66 205.68l-3.47 2a6.24 6.24 0 00-2.6 5v46.54l8.66-5v-46.58c0-1.91-1.16-2.79-2.59-1.96z"/>
    <path fill="#B2B2B2" fill-rule="nonzero" stroke="#09073B" stroke-linecap="round" stroke-linejoin="round" stroke-width="3" d="M287.28 146.2a4.56 4.56 0 00-2.55-3.75 13 13 0 00-12.31 0 4.56 4.56 0 00-2.55 3.75v50a4.58 4.58 0 002.55 3.75 13 13 0 0012.31 0 4.58 4.58 0 002.55-3.75h0v-50h0z"/>
    <ellipse cx="278.57" cy="146.2" fill="#B2B2B2" fill-rule="nonzero" stroke="#09073B" stroke-linecap="round" stroke-linejoin="round" stroke-width="3" rx="8.7" ry="5.3"/>
    <path fill="#175CFF" fill-rule="nonzero" stroke="#09073B" stroke-linecap="round" stroke-linejoin="round" stroke-width="3" d="M227.82 128.27c-.16-1.62 1.75-3.35 1.75-5s-1.91-3.39-1.75-5c.16-1.61 2.37-3 2.69-4.57.32-1.57-1.22-3.69-.75-5.24.47-1.55 2.91-2.44 3.53-3.95.62-1.51-.47-3.85.3-5.29s3.33-1.82 4.24-3.18c.91-1.36.28-3.87 1.32-5.13 1.04-1.26 3.42-1.38 4.78-2.29 2.64-1.78 2.78-4.82 1.83-7.3-.67-1.77-3.69-2.31-4.49-4-.8-1.69.41-4.2-.13-6-.54-1.8-2.88-3.32-3.14-5.25-.26-1.93 1.58-3.9 1.58-5.83 0-1.93-1.85-4-1.58-5.84.27-1.84 2.62-3.35 3.16-5.16s-.67-4.32.12-6c.79-1.68 3.46-2.46 4.49-4.05 1.03-1.59.58-4.33 1.83-5.76 1.25-1.43 4-1.38 5.45-2.63 1.45-1.25 1.76-4 3.37-5s4.22-.19 6-1c1.78-.81 2.81-3.32 4.65-3.86 1.84-.54 4.1 1 6 .74 1.9-.26 3.62-2.39 5.55-2.39 1.93 0 3.7 2.12 5.56 2.39 1.86.27 4.19-1.27 6-.74 1.81.53 2.93 3.07 4.65 3.86 1.72.79 4.37 0 6 1s1.94 3.78 3.38 5c1.44 1.22 4.19 1.19 5.44 2.63s.8 4.16 1.83 5.76c1.03 1.6 3.69 2.31 4.49 4.05.8 1.74-.41 4.2.12 6 .53 1.8 2.89 3.25 3.16 5.16.27 1.91-1.59 3.9-1.59 5.84s1.86 4 1.59 5.83-2.62 3.35-3.16 5.16.67 4.32-.12 6c-.79 1.68-3.8 2.29-4.49 4-1.19 3-.43 4.76 1.83 7.3 1.09 1.22 3.74 1 4.78 2.29s.41 3.77 1.32 5.13c.91 1.36 3.47 1.74 4.24 3.18.77 1.44-.33 3.77.3 5.29s3.05 2.37 3.53 3.95-1.07 3.63-.75 5.24c.32 1.61 2.53 2.93 2.69 4.57.16 1.64-1.76 3.34-1.76 5 0 1.66 1.92 3.38 1.76 5-.16 1.62-2.37 3-2.69 4.56-.32 1.56 1.22 3.69.75 5.25s-2.91 2.44-3.53 3.94c-.62 1.5.47 3.86-.3 5.29-.77 1.43-3.33 1.83-4.24 3.18-.91 1.35-.28 3.87-1.32 5.13-1.04 1.26-3.62 1.14-4.78 2.3-1.16 1.16-1 3.73-2.29 4.77-1.29 1.04-3.77.41-5.13 1.33-1.36.92-1.73 3.46-3.18 4.23-1.45.77-3.77-.33-5.29.3s-2.37 3.06-3.95 3.53c-1.58.47-3.63-1.06-5.24-.75-1.61.31-2.92 2.54-4.57 2.7-1.65.16-3.34-1.76-5-1.76-1.66 0-3.38 1.91-5 1.76-1.62-.15-3-2.38-4.57-2.7-1.57-.32-3.69 1.23-5.24.75-1.55-.48-2.45-2.91-3.95-3.53-1.5-.62-3.85.47-5.29-.3s-1.82-3.33-3.18-4.24c-1.36-.91-3.87-.28-5.13-1.32-1.26-1.04-1.14-3.62-2.29-4.78-1.15-1.16-3.74-1-4.78-2.29s-.41-3.77-1.32-5.13c-.91-1.36-3.47-1.73-4.24-3.18-.77-1.45.33-3.77-.3-5.29s-3-2.37-3.53-3.94c-.53-1.57 1.07-3.63.75-5.25-.32-1.62-2.59-2.83-2.77-4.47z"/>
    <path stroke="#09073B" stroke-linecap="round" stroke-linejoin="round" stroke-width="3" d="M300.74 94.73c-1.59 1-4.22.2-6 1-1.78.8-2.81 3.33-4.65 3.86-1.84.53-4.1-1-6-.74-1.9.26-3.62 2.4-5.56 2.4-1.94 0-3.69-2.13-5.55-2.4-1.86-.27-4.19 1.28-6 .74-1.81-.54-2.93-3.07-4.65-3.86-1.72-.79-4.37 0-6-1"/>
    <path fill="#FFF" fill-rule="nonzero" stroke="#09073B" stroke-linecap="round" stroke-linejoin="round" stroke-width="3" d="M109.89 253.3a7.16 7.16 0 00-6.5 0 2.26 2.26 0 00-1.35 1.87v47.57a2.29 2.29 0 001.35 1.88 7.22 7.22 0 006.5 0 2.28 2.28 0 001.34-1.88v-47.57a2.25 2.25 0 00-1.34-1.87h0z"/>
    <path fill="#175CFF" fill-rule="nonzero" stroke="#09073B" stroke-linecap="round" stroke-linejoin="round" stroke-width="3" d="M126.11 237.3L96 219.93c-1.14-.66-2.71-.56-4.44.44a13.85 13.85 0 00-6.26 10.85v14.48l30.08 17.37 12.62-7.24v-14.47c0-2-.75-3.36-1.89-4.06z"/>
    <path fill="#175CFF" fill-rule="nonzero" stroke="#09073B" stroke-linecap="round" stroke-linejoin="round" stroke-width="3" d="M121.68 237.74a13.86 13.86 0 00-6.27 10.85h0v14.48l12.59-7.24v-14.47h0c0-4-2.86-5.62-6.32-3.62z"/>
    <path stroke="#09073B" stroke-linecap="round" stroke-linejoin="round" stroke-width="3" d="M100.67 245.52l-7.92-14.28"/>
    <path fill="#FFF" fill-rule="nonzero" stroke="#09073B" stroke-linecap="round" stroke-linejoin="round" stroke-width="3" d="M95.39 236l-2.64-4.76-5.52 3.14 2.64 4.75z"/>
    <path fill="#E5E5E5" fill-rule="nonzero" stroke="#09073B" stroke-linecap="round" stroke-linejoin="round" stroke-width="3" d="M362.57 313.27h0l-8.66-5h0c-2.35-1.36-5.6-1.16-9.19.91-7.17 4.14-13 14.21-13 22.5 0 4.14 1.45 7.05 3.81 8.41l8.66 5h0c2.35 1.36 5.59 1.16 9.18-.91 7.18-4.14 13-14.22 13-22.5 0-4.14-1.45-7.05-3.8-8.41zM466.49 253.27h0l-8.66-5h0c-2.35-1.36-5.6-1.16-9.18.91-7.18 4.14-13 14.21-13 22.5 0 4.14 1.46 7.05 3.81 8.41l8.66 5h0c2.35 1.36 5.6 1.16 9.19-.91 7.17-4.14 13-14.22 13-22.5-.01-4.14-1.47-7.05-3.82-8.41z"/>
    <path fill="#FFF" fill-rule="nonzero" stroke="#09073B" stroke-linecap="round" stroke-linejoin="round" stroke-width="3" d="M467.72 190.18h0l-69.29-40h0c-6.31-3.65-16.38-2.55-27.73 4v30l69.28 40 34.65-20c0-6.75-2.58-11.5-6.91-14z"/>
    <path fill="#FFF" fill-rule="nonzero" stroke="#09073B" stroke-linecap="round" stroke-linejoin="round" stroke-width="3" d="M418.33 201.68l69.29 40-4.33 2.5-69.29-40z"/>
    <path fill="#B2B2B2" fill-rule="nonzero" stroke="#09073B" stroke-linecap="round" stroke-linejoin="round" stroke-width="3" d="M240.8 299.18l129.9-75v-80l-129.9 75z"/>
    <path fill="#FFF" fill-rule="nonzero" stroke="#09073B" stroke-linecap="round" stroke-linejoin="round" stroke-width="3" d="M310.08 289.18l-69.28-40v-30l69.28 40zM305.75 341.68l-69.28-40v10l69.28 40z"/>
    <path fill="#FFF" fill-rule="nonzero" stroke="#09073B" stroke-linecap="round" stroke-linejoin="round" stroke-width="3" d="M305.75 261.68l-69.28-40v10l69.28 40zM236.47 221.68l4.33-2.5 69.28 40-4.33 2.5zM236.47 301.68l4.33-2.5 69.28 40-4.33 2.5z"/>
    <path fill="#FFF" fill-rule="nonzero" stroke="#09073B" stroke-linecap="round" stroke-linejoin="round" stroke-width="3" d="M240.8 219.18l69.28 40 129.9-75-69.28-40z"/>
    <path fill="#09073B" fill-rule="nonzero" stroke="#09073B" stroke-linecap="round" stroke-linejoin="round" stroke-width="3" d="M432.48 278.51l-106.24 61.34c-4.14 2.39-7.5-.15-7.5-5.67h0l121.24-70h0c.02 5.52-3.35 11.94-7.5 14.33z"/>
    <path fill="#E5E5E5" fill-rule="nonzero" stroke="#09073B" stroke-linecap="round" stroke-linejoin="round" stroke-width="3" d="M310.08 339.18l129.9-75v-80l-129.9 75zM440 224.18l34.65-20 7.92 13.73c.515.972.77 2.06.74 3.16v28.11l-34.65 20c-4.78 2.76-8.66.52-8.66-5v-40z"/>
    <path stroke="#09073B" stroke-linecap="round" stroke-linejoin="round" stroke-width="2" d="M483.29 243.18l-34.65 20c-1.91 1.1-3.46.2-3.46-2v-40"/>
    <path fill="#09073B" fill-rule="nonzero" stroke="#09073B" stroke-linecap="round" stroke-linejoin="round" stroke-width="3" d="M450.38 234.81v-5.56a7.82 7.82 0 013.52-6.11l14.8-8.54c1.33-.77 2.56-.6 3.15.43l4.64 8a6.37 6.37 0 01.73 3.16v3.46L459.36 240c-4.96 2.86-8.98.53-8.98-5.19z"/>
    <path fill="#E5E5E5" fill-rule="nonzero" stroke="#09073B" stroke-linecap="round" stroke-linejoin="round" stroke-width="3" d="M483.29 244.18v5l-13 7.5v10l13-7.5h0a9.58 9.58 0 004.33-7.5v-10l-4.33 2.5zM440 194.18c19.15-11.06 34.65-6.58 34.65 10l-34.65 20v-30z"/>
    <ellipse cx="457.303" cy="269.181" fill="#E5E5E5" fill-rule="nonzero" stroke="#09073B" stroke-linecap="round" stroke-linejoin="round" stroke-width="3" rx="18.37" ry="10.61" transform="rotate(-60 457.303 269.18)"/>
    <ellipse cx="457.303" cy="269.181" fill="#E5E5E5" fill-rule="nonzero" stroke="#09073B" stroke-linecap="round" stroke-linejoin="round" stroke-width="3" rx="6.12" ry="3.54" transform="rotate(-60 457.303 269.18)"/>
    <path fill="#E5E5E5" fill-rule="nonzero" stroke="#09073B" stroke-linecap="round" stroke-linejoin="round" stroke-width="3" d="M310.08 339.18l-4.33 2.5v10l4.33-2.5zM318.74 334.18l-8.66 5v10zM310.08 259.18l-4.33 2.5v10l4.33-2.5z"/>
    <path stroke="#09073B" stroke-linecap="round" stroke-linejoin="round" stroke-width="2" d="M474.62 204.18c0-8.29-15.49-6.06-34.64 5"/>
    <path fill="#09073B" fill-rule="nonzero" d="M445.18 247.2c2.06-1.19 3.73-.22 3.73 2.15a8.24 8.24 0 01-3.73 6.46v-8.61z"/>
    <ellipse cx="353.384" cy="329.178" fill="#E5E5E5" fill-rule="nonzero" stroke="#09073B" stroke-linecap="round" stroke-linejoin="round" stroke-width="3" rx="18.37" ry="10.61" transform="rotate(-60 353.384 329.178)"/>
    <ellipse cx="353.384" cy="329.178" fill="#E5E5E5" fill-rule="nonzero" stroke="#09073B" stroke-linecap="round" stroke-linejoin="round" stroke-width="3" rx="6.12" ry="3.54" transform="rotate(-60 353.384 329.178)"/>
    <path stroke="#09073B" stroke-linecap="round" stroke-linejoin="round" stroke-width="2" d="M476.7 215.97l6.71 3.88-6.19 9.83"/>
    <path fill="#B2B2B2" fill-rule="nonzero" stroke="#09073B" stroke-linecap="round" stroke-linejoin="round" stroke-width="3" d="M484.19 220.3l-1.55-.9c-1.28-.74-2.32 0-2.32 1.76v4.53a5.57 5.57 0 002.32 4.44l1.55.89c1.28.74 2.32-.05 2.32-1.76v-4.53a5.55 5.55 0 00-2.32-4.43h0z"/>
    <path fill="#09073B" fill-rule="nonzero" stroke="#09073B" stroke-linecap="round" stroke-linejoin="round" stroke-width="3" d="M240.8 299.18l69.28 40v-50l-25.98-15zM212.93 364.41h0c0-1.61-1.58-3.47-6.25-3.47a8.29 8.29 0 00-8.16 8.48h0c0 1.23 1.19 2.42 3.29 2.93 2.74.67 5.91-.07 7.07-1.65l3.62-4.94a2 2 0 00.43-1.35zM243.56 370.94h0a1.48 1.48 0 00-.05-.35c-.46-3.42-7.43-6.1-14.74-4.65-3.22.64-4.5 4.41-4.55 7.07a.28.28 0 000 .09v.09h0a2 2 0 00.42 1.1c1.16 1.59 4.32 2.33 7.07 1.66l8.56-2.09c2.07-.53 3.31-1.7 3.29-2.92zM201.53 270.47c-3.71 0-7 5.81-7 12.44s5 16.5 12.27 16.5 4.31-28.94-5.27-28.94z"/>
    <path fill="#175CFF" fill-rule="nonzero" stroke="#09073B" stroke-linecap="round" stroke-linejoin="round" stroke-width="3" d="M232.81 281.97l25.98-15-25.98-15-25.98 15z"/>
    <path fill="#FFF" fill-rule="nonzero" stroke="#09073B" stroke-linecap="round" stroke-linejoin="round" stroke-width="3" d="M241.47 276.97l8.66-5-25.98-15-8.66 5z"/>
    <path fill="#175CFF" fill-rule="nonzero" stroke="#09073B" stroke-linecap="round" stroke-linejoin="round" stroke-width="3" d="M206.83 296.97l25.98 15v-30l-25.98-15zM258.79 296.97l-25.98 15v-30l25.98-15z"/>
    <path fill="#FFF" fill-rule="nonzero" stroke="#09073B" stroke-linecap="round" stroke-linejoin="round" stroke-width="3" d="M250.13 286.97l-8.66 5v-15l8.66-5z"/>
    <path stroke="#09073B" stroke-linecap="round" stroke-linejoin="round" stroke-width="3" d="M232.81 251.97l-25.98 15h0v30l25.98 15 25.98-15v-30z"/>
    <path fill="#175CFF" fill-rule="nonzero" stroke="#09073B" stroke-linecap="round" stroke-linejoin="round" stroke-width="3" d="M212.94 333.11c4.1 3.56 9.8 12.8 9.8 12.8s3.33 20.21 3.65 21.61c.39 1.65 2 2.42 3.8 2.42 2.21 0 3.25-1 3.48-2.93.15-1.29.33-16.11.87-22.93a19.9 19.9 0 00-.62-6.74c-1.6-6-4.9-18.16-5.75-19.87-1.69-3.39-2.64-5.63-4.69-7.12-3.32-2.41-10.56-5-17.28-5-5.86 0-11.1 3.3-11.1 6.91 0 9 6 53 5.74 51.46a2.8 2.8 0 002.93 2.18c1.51 0 3.77-.34 4.09-2.48.57-3.81 5.08-30.31 5.08-30.31zM212.94 333.11c-.8-.35-2.7-.92-2.7-.92"/>
    <path fill="#09073B" fill-rule="nonzero" stroke="#09073B" stroke-linecap="round" stroke-linejoin="round" stroke-width="3" d="M228.17 314.23c0-10.72-3.61-29.71-3.61-29.71a2.71 2.71 0 00-1.18-2h0L204 271.31h0a2.8 2.8 0 00-3.11.34c-5.81 4.69-7.42 24.61-7.42 40.74 0 6.48 7.68 12.11 16.21 12.11 10.72 0 18.49-2.71 18.49-10.27z"/>
    <path fill="#FFF" fill-rule="nonzero" stroke="#09073B" stroke-linecap="round" stroke-linejoin="round" stroke-width="3" d="M211.07 248.66a9.54 9.54 0 00-9.54 9.54v8.6c0 2.39.9 4.693 2.52 6.45v3.41a2.73 2.73 0 001.62 2.25 8.62 8.62 0 007.79 0 2.74 2.74 0 001.61-2.25v-1.21a9.54 9.54 0 005.53-8.65v-8.6a9.54 9.54 0 00-9.53-9.54z"/>
    <path fill="#175CFF" fill-rule="nonzero" stroke="#09073B" stroke-linecap="round" stroke-linejoin="round" stroke-width="3" d="M218.22 258.84s7-3.09 8.82-4.72c1.82-1.63-2-4.08-4.41-4.89a17 17 0 00-11.88 0 43.22 43.22 0 00-5.92 2.44l13.39 7.17z"/>
    <path fill="#09073B" fill-rule="nonzero" d="M201.43 257.25c-2.35 2.32-2.2 3.84-2.28 6-.08 2.16 0 7.67 4.56 10.24 4.94 2.79 10.59-1.61 10.59-5.6 0-2.75.65-4.22 1.63-4.64.98-.42.78 2 .78 2a2 2 0 001.46-1.91c0-2.29-.78-8-3.38-8-2.6 0-7.58-3.79-13.36 1.91z"/>
    <path fill="#09073B" fill-rule="nonzero" stroke="#09073B" stroke-linecap="round" stroke-linejoin="round" stroke-width="3" d="M219.63 282.61c-4.29 1.8-3.91 9.75-1.46 17.13 2.45 7.38 7.07 12.51 11.77 14.39 5.94 2.38 16.06-3.41 15.86-9.66l-8.2 4.73s-5.22-15.18-7.09-18.45c-2.09-3.63-5.62-10.34-10.88-8.14z"/>
    <path fill="#175CFF" fill-rule="nonzero" stroke="#09073B" stroke-linecap="round" stroke-linejoin="round" stroke-width="3" d="M220.56 253.55l-2.56-4.74a5.56 5.56 0 00-4-2.82l-4.95-.77a5.89 5.89 0 00-4.91 1.49l-3.9 3.6a3.76 3.76 0 00-1.18 3.16l.37 3.44c.16 1.42 1.36 2.73 3.58 3.59a18.68 18.68 0 0015.2-1.66c2.46-1.63 3.23-3.36 2.35-5.29z"/>
  </g>
</svg>